<svg version="1.0" xmlns="http://www.w3.org/2000/svg" width="800.000000" height="800.000000" viewBox="0 0 800.000000 800.000000" preserveAspectRatio="xMidYMid meet">
  <metadata>
    <rdf:RDF xmlns:rdf="http://www.w3.org/1999/02/22-rdf-syntax-ns#" xmlns:rdfs="http://www.w3.org/2000/01/rdf-schema#" xmlns:dc="http://purl.org/dc/elements/1.1/">
      <rdf:Description dc:format="image/svg+xml" dc:Label="1" dc:ContentProducer="001191330110MACRLGPT8B00000" dc:ProduceID="326903650" dc:ReservedCode1="hQMKzawdoal25EwvszaekiiARQHJo0IwuevOXZ0ogEc=" dc:ContentPropagator="001191330110MACRLGPT8B00000" dc:PropagateID="326903650" dc:ReservedCode2="hQMKzawdoal25EwvszaekiiARQHJo0IwuevOXZ0ogEc="/>
    </rdf:RDF>
  </metadata>
  <g transform="translate(0.000000,800.000000) scale(0.100000,-0.100000)" fill="#000000" stroke="none">
    <path d="M2755 6710 c-22 -5 -76 -13 -121 -19 -147 -18 -328 -98 -450 -198 -132 -109 -246 -290 -296 -468 -21 -75 -22 -103 -26 -487 l-3 -408 -193 0 c-212 0 -257 -8 -310 -58 -37 -34 -65 -97 -66 -143 0 -59 45 -135 98 -167 45 -26 55 -27 209 -32 148 -5 164 -7 183 -26 19 -19 26 -61 65 -420 131 -1200 246 -2214 256 -2251 13 -47 59 -100 106 -119 18 -8 57 -14 87 -14 l54 0 7 -42 c20 -131 77 -247 169 -345 111 -119 228 -181 394 -210 84 -14 100 -14 188 1 260 44 456 206 535 443 l21 64 865 -3 865 -3 17 -55 c55 -179 194 -326 379 -404 425 -179 915 144 916 604 0 109 -15 173 -71 289 -112 234 -366 383 -628 368 -106 -6 -204 -35 -295 -85 -84 -46 -216 -178 -255 -254 l-30 -58 -900 0 -900 0 -28 53 c-129 247 -438 391 -714 333 -144 -31 -235 -80 -348 -187 l-71 -68 -22 207 c-13 114 -25 231 -28 259 l-6 53 1628 2 1629 3 57 22 c152 58 268 193 298 348 8 44 10 422 8 1390 l-3 1330 -28 89 c-117 374 -390 600 -794 657 -102 15 -2379 23 -2448 9z m45 -938 l0 -528 -26 -52 c-61 -123 -199 -179 -340 -137 -65 19 -116 63 -148 127 l-26 52 0 316 c0 349 4 384 63 494 79 149 248 255 410 256 l67 0 0 -528z m940 -4 c0 -495 -2 -536 -19 -573 -93 -205 -402 -204 -497 0 l-24 50 0 528 0 527 270 0 270 0 0 -532z m948 -5 l-3 -538 -27 -47 c-36 -61 -91 -105 -152 -123 -135 -41 -266 8 -334 123 l-27 47 -3 538 -3 537 276 0 276 0 -3 -537z m573 521 c129 -38 256 -140 313 -252 52 -102 56 -140 56 -482 0 -350 -2 -361 -70 -428 -133 -133 -361 -98 -446 70 l-24 47 0 531 0 530 58 0 c32 0 83 -7 113 -16z m-2203 -1501 c67 -54 172 -106 262 -129 77 -20 267 -14 341 9 73 24 163 73 224 123 l56 45 36 -28 c151 -120 266 -163 437 -163 158 0 285 43 408 139 l68 51 57 -46 c73 -60 175 -109 271 -130 96 -21 260 -15 350 14 l62 20 0 -691 c0 -628 -1 -692 -17 -709 -15 -17 -79 -18 -1635 -18 -1534 0 -1618 1 -1618 18 0 9 -16 152 -35 317 -31 266 -125 1100 -125 1110 0 2 25 -7 56 -21 123 -54 292 -70 424 -38 85 20 192 72 260 128 30 24 56 45 58 45 2 1 29 -20 60 -46z m44 -2589 c214 -72 230 -366 26 -468 -101 -50 -223 -30 -303 49 -52 52 -75 107 -75 181 0 178 177 298 352 238z m3062 -14 c87 -44 136 -125 136 -225 0 -141 -102 -244 -251 -253 -154 -9 -269 101 -269 258 0 54 5 74 30 117 33 57 80 98 137 119 57 21 158 13 217 -16z"/>
  </g>
</svg>